<svg width="24" height="24" viewBox="0 0 24 24" fill="none" xmlns="http://www.w3.org/2000/svg">
<path d="M10.8423 0.0524925C17.4194 -0.561194 23.2471 4.27684 23.854 10.8545C24.4609 17.4324 19.617 23.2548 13.0387 23.855C6.46996 24.4546 0.657415 19.6191 0.0513343 13.0508C-0.554682 6.48269 4.27479 0.665221 10.8423 0.0524925ZM13.2272 22.59C19.0988 21.885 23.286 16.5516 22.5775 10.6807C21.869 4.80954 16.5332 0.625658 10.6625 1.33791C4.79707 2.04945 0.617785 7.37941 1.32562 13.2451C2.03353 19.1116 7.3608 23.2938 13.2272 22.59Z" fill="#080C09"/>
<path d="M16.7808 5.96203L18.1566 5.95264C18.1833 9.92329 18.1852 13.8942 18.1625 17.8648L16.7399 17.8827L16.7378 10.4221L16.7313 8.37913C15.9367 9.88711 15.0346 11.3368 14.1751 12.8082C13.6303 13.7408 13.1244 14.8108 12.4502 15.6494C12.2894 15.7082 12.1149 15.7127 11.9474 15.6743C11.8926 15.6616 11.778 15.6187 11.7364 15.5855C11.3727 15.2953 7.95337 9.28857 7.40731 8.37766C7.54748 9.45783 7.4594 10.6364 7.45882 11.7268L7.45467 17.8533L6 17.8585C6.04506 13.8942 5.97392 9.92712 6.01195 5.96197L7.596 5.97022C8.30038 7.22961 9.05597 8.46267 9.78644 9.70724C10.5627 11.0299 11.3185 12.3685 12.1432 13.6615C12.9822 12.1294 13.9204 10.6444 14.8223 9.14776C15.4611 8.08772 16.065 6.97138 16.7808 5.96203Z" fill="#080C09"/>
</svg>
