<svg width="16" height="16" viewBox="0 0 16 16" fill="none" xmlns="http://www.w3.org/2000/svg">
<path fill-rule="evenodd" clip-rule="evenodd" d="M15.9144 5.65609L15.9782 5.85609C16.0307 6.00704 15.9865 6.17481 15.8665 6.28009L11.9892 9.6001L13.138 14.5761C13.1769 14.7351 13.1172 14.9021 12.9864 15.0001L12.8109 15.1201C12.7427 15.1737 12.6582 15.2019 12.5716 15.2001C12.4985 15.2016 12.4266 15.1822 12.3642 15.1441L8.00016 12.4801L3.66011 15.1441C3.59771 15.1822 3.52573 15.2016 3.45267 15.2001C3.36607 15.2019 3.28151 15.1737 3.21334 15.1201L3.01388 15.0001C2.88308 14.9021 2.8234 14.7351 2.8623 14.5761L4.01114 9.6001L0.14179 6.28809C0.0156062 6.18343 -0.0321581 6.01101 0.0221197 5.85609L0.109878 5.65609C0.15654 5.49803 0.296829 5.38613 0.460912 5.37609L5.55888 4.96809L7.5135 0.256089C7.57613 0.0996049 7.72831 -0.00212468 7.89645 8.89161e-05H8.10385C8.27049 -0.00345668 8.42105 0.0993273 8.47881 0.256089L10.4654 4.96809L15.5634 5.37609C15.7275 5.38613 15.8677 5.49803 15.9144 5.65609ZM11.2871 12.8481L10.3936 9.1041L13.3215 6.60009L9.48409 6.29609L8.00016 2.72809V10.8401L11.2871 12.8481Z" fill="#080C09"/>
</svg>
