<svg width="16" height="16" viewBox="0 0 16 16" fill="none" xmlns="http://www.w3.org/2000/svg">
<path d="M7.71777 0.683594C7.82114 0.438859 8.17885 0.438864 8.28223 0.683594L9.90527 4.53906C10.0947 4.98881 10.5211 5.29266 11.0059 5.33105L15.2188 5.66406C15.4981 5.68621 15.5892 6.01569 15.3945 6.18066L12.1846 8.89746C11.8125 9.21254 11.648 9.7093 11.7627 10.1846L12.7432 14.2461C12.801 14.4858 12.5305 14.7119 12.2852 14.5645L8.67773 12.3877C8.26129 12.1365 7.73871 12.1364 7.32227 12.3877L3.71484 14.5645C3.46953 14.7119 3.19896 14.4858 3.25684 14.2461L4.2373 10.1846C4.35198 9.70935 4.18759 9.21258 3.81543 8.89746L0.605469 6.18066C0.410831 6.0157 0.501933 5.68621 0.78125 5.66406L4.99414 5.33105C5.47892 5.29266 5.90534 4.98892 6.09473 4.53906L7.71777 0.683594Z" fill="#080C09" stroke="#080C09"/>
</svg>
