<svg width="229" height="98" viewBox="0 0 229 98" fill="none" xmlns="http://www.w3.org/2000/svg">
<g clip-path="url(#clip0_8265_2329)">
<path d="M25.9507 25.3249C39.369 24.0728 51.2585 33.9433 52.4967 47.3629C53.735 60.783 43.8526 72.6617 30.4317 73.8862C17.0302 75.1094 5.1716 65.2442 3.93509 51.8436C2.69871 38.4436 12.5517 26.5749 25.9507 25.3249ZM30.8163 71.3055C42.7954 69.8671 51.338 58.986 49.8925 47.0083C48.4471 35.0301 37.5611 26.4942 25.5838 27.9473C13.6172 29.399 5.09075 40.2731 6.53487 52.2401C7.97912 64.2088 18.8477 72.7412 30.8163 71.3055Z" fill="white"/>
<path d="M37.7595 36.9147L40.5664 36.8955C40.6209 44.9963 40.6248 53.0977 40.5785 61.1985L37.6762 61.2351L37.6719 46.014L37.6586 41.846C36.0375 44.9225 34.197 47.8802 32.4435 50.8821C31.3321 52.7847 30.2998 54.9677 28.9244 56.6787C28.5963 56.7986 28.2404 56.8078 27.8986 56.7295C27.7869 56.7034 27.5529 56.6161 27.468 56.5483C26.7261 55.9562 19.75 43.7014 18.636 41.843C18.922 44.0467 18.7423 46.4513 18.7411 48.6759L18.7326 61.1751L15.7648 61.1855C15.8568 53.0977 15.7116 45.0042 15.7892 36.9145L19.0209 36.9314C20.458 39.5008 21.9995 42.0164 23.4898 44.5556C25.0735 47.2539 26.6155 49.9849 28.298 52.623C30.0098 49.4972 31.9239 46.4676 33.7639 43.4141C35.0672 41.2515 36.2993 38.9739 37.7595 36.9147Z" fill="white"/>
<path d="M186.366 42.6871C186.939 42.6487 187.527 42.6335 188.101 42.6437C190.241 42.6819 192.426 43.8261 193.891 45.343C195.717 47.2331 196.564 49.8693 196.503 52.4696C196.442 55.1155 195.449 57.631 193.502 59.4463C191.776 61.0542 189.564 61.9149 187.198 61.8262C184.49 61.7245 182.694 60.5834 180.878 58.6443C180.807 59.7541 180.828 60.8769 180.818 61.9892C180.829 64.1983 180.827 66.4074 180.809 68.6178C179.778 68.7195 178.74 68.7104 177.711 68.5891C177.88 65.1685 177.731 61.6658 177.732 58.2361C177.732 53.1346 177.813 48.0195 177.698 42.9197L180.763 42.9077C180.703 44.0457 180.717 45.1954 180.7 46.3354C182.36 44.2635 183.745 43.2646 186.366 42.6871ZM187.694 59.089C189.599 58.7317 191.075 57.9544 192.193 56.31C193.287 54.6734 193.68 52.6665 193.282 50.7391C192.94 49.0214 191.923 47.3979 190.427 46.4593C189.25 45.7204 187.976 45.5173 186.616 45.5558C184.727 45.9127 183.196 46.5852 182.064 48.2314C180.998 49.7819 180.539 51.9897 180.899 53.8336C181.24 55.6045 182.29 57.159 183.807 58.1344C185.015 58.8947 186.292 59.1138 187.694 59.089Z" fill="white"/>
<path d="M129.182 35.002C129.681 35.5152 129.836 36.8696 130.134 37.595C126.918 38.9447 122.256 38.6672 119.67 41.1373C118.123 42.6151 117.754 44.6583 117.721 46.6947C119.105 44.9857 120.622 43.6009 122.891 43.2217C125.183 42.8383 127.613 43.2818 129.493 44.6812C131.513 46.1849 132.637 48.3648 132.975 50.8339C133.362 53.6716 132.656 56.3475 130.915 58.614C129.654 60.0132 128.187 61.0473 126.339 61.4999C123.999 62.0736 121.329 61.7763 119.267 60.497C116.916 59.0365 115.562 56.6266 114.975 53.9754C114.099 50.0137 114.271 44.0928 116.554 40.5763C118.568 37.4741 121.609 36.8599 124.988 36.0563C126.391 35.7226 127.774 35.3119 129.182 35.002ZM123.835 59.1069C125.826 58.8122 127.308 58.3349 128.545 56.624C129.759 54.9469 130.152 52.8291 129.775 50.8131C129.471 49.1861 128.614 47.6981 127.218 46.7774C126.362 46.2118 125.37 45.8877 124.345 45.8392C122.407 46.0558 120.813 46.4572 119.524 48.0554C118.314 49.556 117.796 51.5825 118.063 53.4838C118.307 55.2182 119.255 56.8874 120.679 57.9215C121.643 58.6205 122.677 58.9269 123.835 59.1069Z" fill="white"/>
<path d="M85.6092 36.2364C86.7413 36.1228 87.9191 36.1772 89.0577 36.1693C88.9041 44.5047 89.0874 52.8645 89.0395 61.204L86.0377 61.174L86.0424 46.4285C86.0342 44.7391 85.999 43.0461 86.1025 41.359C83.3361 46.4684 80.8401 51.8017 77.8101 56.7559L75.8596 56.7454C72.8752 51.8526 70.3914 46.5803 67.6317 41.5524C67.7396 43.8582 67.6666 46.1995 67.6682 48.5087L67.6748 61.2053C66.6741 61.1792 65.6773 61.2444 64.6752 61.1975L64.6766 46.0087C64.6787 42.7437 64.6148 39.4582 64.7938 36.1977L68.1336 36.1995C69.083 37.8273 69.8898 39.5714 70.7523 41.2482C72.7532 45.1378 74.7338 49.0697 76.8925 52.8737C80.065 47.4944 82.5763 41.7002 85.6092 36.2364Z" fill="white"/>
<path d="M101.048 42.6933C101.506 42.6688 101.965 42.6515 102.423 42.6413C104.827 42.6019 107.221 43.2576 108.954 44.9991C111.272 47.3286 111.502 50.2645 111.503 53.3668C106.5 53.4307 101.491 53.3629 96.4872 53.3851C96.6415 54.2106 96.7968 55.0008 97.1896 55.7546C97.9716 57.2621 99.3289 58.3901 100.954 58.883C102.899 59.4725 104.855 59.1269 106.605 58.1619C107.192 57.7628 107.729 57.296 108.275 56.8448C109.06 57.2934 109.855 57.6676 110.685 58.0263C109.45 59.6915 107.859 60.9056 105.845 61.4573C103.266 62.1628 100.123 61.8863 97.8 60.5196C95.7632 59.3186 94.3019 57.3416 93.7517 55.0426C93.0655 52.2779 93.4488 49.2541 94.9488 46.8224C96.3948 44.4785 98.4238 43.3202 101.048 42.6933ZM96.5193 51.03C98.9971 51.0104 101.475 51.0026 103.953 51.0091L108.585 51.0117C108.133 49.1109 107.681 47.3488 105.912 46.2361C104.618 45.4218 103.048 45.2978 101.559 45.422C99.9503 45.7934 98.5945 46.5255 97.6765 47.9431C97.055 48.903 96.7795 49.9345 96.5193 51.03Z" fill="white"/>
<path d="M163.28 42.6873C163.73 42.6648 164.178 42.6498 164.628 42.6423C167.025 42.6163 169.42 43.3274 171.131 45.0763C173.382 47.3784 173.59 50.316 173.579 53.3545C168.598 53.4301 163.604 53.3702 158.62 53.3819C158.687 54.2908 158.846 55.0733 159.271 55.8909C160.056 57.4049 161.359 58.4065 162.985 58.8824C165.16 59.5214 167.14 59.0494 169.062 57.9826C169.531 57.6592 169.949 57.2641 170.375 56.8859C171.165 57.311 171.966 57.6553 172.798 57.9865C171.495 59.6988 169.874 60.9403 167.769 61.4736C165.152 62.1374 162.148 61.8831 159.812 60.4734C157.739 59.2215 156.317 57.1585 155.772 54.8085C155.15 52.1248 155.584 49.0381 157.084 46.7114C158.584 44.3852 160.635 43.2594 163.28 42.6873ZM158.593 51.0228C160.965 51.0163 163.34 50.9837 165.712 51.0085L170.739 51.0059C170.217 49.0515 169.671 47.1473 167.78 46.0722C166.609 45.4057 165.182 45.2921 163.86 45.4258C162.291 45.6854 160.965 46.2757 159.991 47.5872C159.219 48.6258 158.89 49.7866 158.593 51.0228Z" fill="white"/>
<path d="M215.016 42.9516C218.05 42.8093 221.129 42.9124 224.169 42.9221C224.014 48.9979 224.152 55.1146 224.149 61.1954L221.023 61.1615L221.021 54.919C219.528 54.9098 217.561 54.6177 216.137 54.9568C215.692 55.0624 215.613 55.2867 215.364 55.6323C214.309 57.5036 213.135 59.3097 212.076 61.1824C210.895 61.2085 209.712 61.2124 208.531 61.1915C209.687 59.0202 211.257 56.2569 212.788 54.3765C212.606 54.2878 212.426 54.1939 212.248 54.0974C210.913 53.3606 209.892 52.1752 209.501 50.6886C209.094 49.1388 209.316 47.37 210.145 45.994C211.263 44.1375 213.013 43.4238 215.016 42.9516ZM218.221 52.2991C219.144 52.2913 220.086 52.32 221.006 52.2535C220.995 50.0926 221 47.9318 221.023 45.771C219.19 45.7643 217.332 45.7151 215.501 45.8155C214.345 46.1774 213.443 46.5679 212.82 47.6814C212.406 48.4215 212.295 49.3981 212.574 50.2022C212.844 50.9807 213.469 51.5271 214.204 51.8596C215.446 52.4204 216.891 52.3108 218.221 52.2991Z" fill="white"/>
<path d="M139.323 43.1194C143.283 42.9766 147.276 43.0692 151.239 43.0619L151.22 61.1932C150.233 61.1788 149.242 61.1371 148.263 61.2714L148.248 45.9128L146.569 45.9805C145.069 45.9066 143.537 46.0053 142.035 46.0405C141.993 49.6953 141.978 57.2719 139.419 59.9765C138.142 61.3249 136.7 61.4631 134.956 61.4775C134.943 60.5242 134.892 59.5827 134.823 58.632C135.278 58.5903 135.761 58.559 136.204 58.4468C138.96 57.7518 139.008 48.6467 139.077 46.351C139.104 45.4563 138.906 43.8477 139.323 43.1194Z" fill="white"/>
<path d="M203.538 42.9848L203.944 42.9609C203.992 43.0268 204.061 43.0817 204.091 43.1585C204.227 43.5152 204.087 59.3539 204.088 61.1848L201.433 61.2031L201.238 61.164C200.813 60.3959 201.239 45.3025 201.106 43.0209C201.917 43.031 202.728 43.0037 203.538 42.9848Z" fill="white"/>
<path d="M201.05 36.1468L204.105 36.1377C204.072 37.2215 204.097 38.3062 204.112 39.3902L200.968 39.4139C201.014 38.3254 201.041 37.2362 201.05 36.1468Z" fill="white"/>
</g>
<defs>
<clipPath id="clip0_8265_2329">
<rect width="220.338" height="48.771" fill="white" transform="translate(3.83036 25.2178)"/>
</clipPath>
</defs>
</svg>
